<svg width="200" height="79" viewBox="0 0 200 79" fill="none" xmlns="http://www.w3.org/2000/svg">
<path d="M14.0494 77.7923L36.1539 43.7054L23.1163 5.03027L0.941452 39.2892L14.0494 77.7923Z" fill="#C7FFBD"/>
<path d="M194.231 19.685H194.911V17.2932H195.802V16.6913H193.333V17.2932H194.224L194.231 19.685ZM197.084 17.6605L197.92 18.9737H197.975L198.803 17.6605V19.685H199.429V16.6913H198.726L197.944 17.9576L197.163 16.6913H196.436V19.6928H197.084V17.6605ZM62.1434 32.6445C55.9763 30.7373 50.6535 29.0958 50.6535 24.1168C50.6535 19.8257 55.6872 17.8638 59.1029 17.8638C64.3711 17.8638 67.568 19.6147 70.9915 22.4364L71.5621 22.8975L80.2382 11.9L79.652 11.4545C73.5451 6.91794 66.1552 4.43821 58.548 4.37284C46.417 4.37284 33.5357 11.767 33.5357 25.4769C33.5357 40.2185 44.2206 43.6342 53.6471 46.6591C59.822 48.6288 65.1527 50.3328 65.1527 55.257C65.1527 60.3533 59.0326 62.0729 55.1712 62.0729C46.0497 62.0729 39.5387 55.515 37.5064 53.5844L28.9084 65.942C36.4355 72.1559 42.6887 75.1339 48.7463 76.2751C51.0954 76.6812 53.4751 76.8851 55.8591 76.8848C63.2455 76.8848 69.8503 74.8604 74.4698 71.1867C79.5426 67.1692 82.2235 61.2287 82.2235 53.9909C82.2235 38.8663 71.5308 35.56 62.0965 32.6522L62.1434 32.6445ZM180.122 38.7333C175.011 37.1701 171.876 36.0367 171.876 33.1526C171.876 30.7451 175.105 29.4164 177.348 29.4164C181.452 29.4164 183.781 30.792 186.892 33.5042L187.439 33.9811L195.912 23.2258L195.388 22.8037C190.174 18.5629 183.671 16.2251 176.949 16.1755C166.687 16.1755 155.791 22.4988 155.791 34.2156C155.791 46.8545 165.53 49.9732 172.651 52.2478C177.778 53.8892 180.92 55.0382 180.92 57.8756C180.92 61.1349 176.426 62.1901 174.245 62.1901C170.094 62.1901 166.617 60.7129 164.201 57.9224L163.654 57.2893L158.073 64.41L149.248 16.9258H135.421L129.864 40.8985L123.807 10.5243H110.323L99.3803 75.8374H115.326L118.538 54.9366L122.282 75.8374H137.079L141.034 54.7333L143.722 75.8374H160.347L159.636 72.75L159.778 72.8126C164.439 75.1775 169.603 76.3814 174.831 76.322C188.33 76.322 197.045 68.6933 197.045 56.8829C197.045 43.9391 187.291 40.922 180.162 38.7256L180.122 38.7333ZM98.6378 16.9414V75.8374H81.8953V66.5908C83.9881 62.7226 85.0488 58.3804 84.975 53.983C84.975 48.7774 83.7946 44.7988 81.8953 41.6957V16.9414H98.6378ZM103.046 14.4481C104.669 14.3999 106.232 13.8266 107.502 12.8145L105.938 10.6181C105.143 11.2459 104.181 11.6264 103.171 11.7123C102.566 11.7212 101.979 11.5069 101.522 11.1105L107.861 7.02258C106.626 5.09195 105.118 4.16181 103.171 4.16181C102.496 4.1536 101.826 4.27848 101.198 4.52937C100.571 4.78025 99.9996 5.1522 99.5162 5.62398C99.0328 6.09576 98.6471 6.65811 98.381 7.27897C98.1149 7.89981 97.9738 8.56701 97.9656 9.24242C97.9574 9.91782 98.0823 10.5882 98.3332 11.2154C98.5841 11.8426 98.956 12.4141 99.4278 12.8975C99.8996 13.3809 100.462 13.7666 101.083 14.0327C101.704 14.2987 102.371 14.4399 103.046 14.4481ZM103.234 6.63176C103.621 6.63374 104 6.73606 104.336 6.92876L100.842 9.17988V9.06263C100.836 8.74745 100.893 8.43424 101.01 8.1417C101.128 7.84916 101.303 7.58329 101.526 7.36001C101.748 7.13674 102.013 6.96064 102.306 6.84223C102.598 6.72381 102.911 6.66553 103.226 6.67084L103.234 6.63176ZM88.9065 14.3621H91.7673V8.41389C91.7673 7.29616 92.33 6.69429 93.2289 6.69429C93.9637 6.69429 94.2998 7.14764 94.2998 8.09342V14.3465H97.1839V7.18672C97.2219 6.78463 97.1725 6.37909 97.0388 5.99796C96.9052 5.61682 96.6907 5.26914 96.4099 4.97876C96.1292 4.6884 95.789 4.46223 95.4126 4.31581C95.0362 4.16939 94.6326 4.10619 94.2294 4.13054C93.7101 4.12909 93.1968 4.24011 92.7245 4.456C92.2523 4.67189 91.8324 4.98752 91.4937 5.38116V0.785156H88.9065V14.3621ZM85.1469 14.3621H81.9421V4.08364H78.5187L79.394 1.05873H88.2343V4.08364H85.1546L85.1469 14.3621Z" fill="white"/>
<path d="M36.209 43.7056L35.4352 44.9015L35.3962 44.8781L25.102 48.2391L27.2125 42.5801L36.209 43.7056Z" fill="#76FF83"/>
<path d="M35.4347 44.9014L31.6829 50.7011L31.6361 50.6698L21.7093 57.3293L25.1016 48.2389L35.3957 44.8779L35.4347 44.9014Z" fill="#C7FFBD"/>
<path d="M14.0263 77.9256L21.7098 57.3295L31.7537 50.584L14.0263 77.9256Z" fill="#ACFB57"/>
<path d="M29.3771 23.4834L31.1592 28.7516L26.2271 33.5586L25.4455 26.524C26.8224 25.5992 28.1358 24.5834 29.3771 23.4834Z" fill="#ACFB57"/>
<path d="M26.2275 33.5605L26.376 33.6778L27.3843 42.3853L27.2124 42.5807L18.1454 41.4473L26.2275 33.5605Z" fill="#35BA2A"/>
<path d="M23.1094 4.92871L29.3625 23.4846C28.1294 24.5919 26.8238 25.6155 25.4543 26.5487L23.1094 4.92871Z" fill="#76FF83"/>
<path d="M12.5647 64.5977L14.0263 77.9245L10.2901 66.9504L12.4162 64.7148L12.5647 64.5977Z" fill="#ACFB57"/>
<path d="M25.1016 48.2383L21.7092 57.3288L21.678 57.3522L21.4826 57.6883L12.7674 64.5979H12.5642L12.3844 64.4728L11.2041 53.4675L11.3136 53.1861L11.4855 52.9594L24.9139 48.168L25.1016 48.2383Z" fill="#258402"/>
<path d="M11.3136 53.1866L12.5642 64.5984L12.4156 64.7157L10.274 66.9511L6.07663 54.6092L6.19388 54.4762C6.19388 54.4762 9.4142 53.5931 11.1651 53.0615L11.3136 53.1866Z" fill="#35BA2A"/>
<path d="M21.6785 57.3536L21.7098 57.3301L14.0264 77.9261L12.5647 64.5993L21.6785 57.3536Z" fill="#134401"/>
<path d="M9.91539 40.4146L11.3145 53.1865C8.52408 54.0307 6.44495 54.5309 6.11666 54.6091L0.895367 39.2891L1.09077 39.1484L9.68872 40.2271L9.91539 40.4146Z" fill="#4E801A"/>
<path d="M31.1599 28.7617L36.2093 43.7064L27.2127 42.5809L26.2279 33.5609L31.1599 28.7617Z" fill="#4E801A"/>
<path d="M27.2048 42.5811L25.1257 48.2324C25.1257 48.2324 14.4252 52.2578 11.3611 53.18L9.96203 40.4082L18.3176 41.4556L27.2048 42.5811Z" fill="#ACFB57"/>
<path d="M3.34884 35.4748L3.66931 35.6L12.3298 33.2551C12.3298 33.2551 12.5721 32.9346 12.6658 32.9033H12.7049L23.1085 4.91309L3.34884 35.4748Z" fill="#35BA2A"/>
<path d="M12.6667 32.9336C9.63419 34.0289 6.51846 34.8783 3.34969 35.4739L0.895367 39.2883L9.93102 40.4138L12.7215 32.918L12.6667 32.9336Z" fill="#134401"/>
<path d="M23.1088 4.92871L12.7052 32.9189C17.219 31.36 21.5099 29.2186 25.4692 26.5487L23.1088 4.92871Z" fill="#C7FFBD"/>
<path d="M25.4693 26.5498C21.51 29.2197 17.2191 31.3613 12.7053 32.9201L9.91486 40.416L18.1376 41.4477L26.2275 33.561L25.4693 26.5498Z" fill="#F6F7F5"/>
</svg>
